<svg version="1.1" id="Layer_1" xmlns="http://www.w3.org/2000/svg" xmlns:xlink="http://www.w3.org/1999/xlink" x="0px" y="0px"
	 width="100%" viewBox="0 0 7972 7972" enable-background="new 0 0 7972 7972" xml:space="preserve">
<path fill="#FFFFFF" opacity="1.000000" stroke="none" 
	d="
M5532.000000,7976.000000 
	C3688.000000,7976.000000 1846.000000,7976.000000 4.000000,7976.000000 
	C4.000000,5318.666504 4.000000,2661.333252 4.000000,4.000001 
	C2661.333252,4.000001 5318.666504,4.000001 7976.000000,4.000000 
	C7976.000000,2661.333252 7976.000000,5318.666504 7976.000000,7976.000000 
	C7162.000000,7976.000000 6348.000000,7976.000000 5532.000000,7976.000000 
M4440.702637,2096.085205 
	C4434.888184,2094.654297 4429.097656,2093.114990 4423.254883,2091.809570 
	C4332.363770,2071.499268 4241.647949,2050.354980 4150.515625,2031.191406 
	C4069.811768,2014.220703 3988.699951,1999.158325 3907.656494,1983.845825 
	C3863.873535,1975.573486 3819.909180,1968.216675 3775.928467,1961.048950 
	C3738.508545,1954.950562 3700.986816,1949.438477 3663.438232,1944.179199 
	C3629.182617,1939.381104 3594.848389,1935.128418 3560.516113,1930.899902 
	C3528.830078,1926.997559 3497.107422,1923.387817 3465.388428,1919.759033 
	C3440.969238,1916.965454 3416.528564,1915.024414 3393.336914,1905.309937 
	C3381.157715,1900.208130 3367.845459,1897.810913 3354.280518,1891.785889 
	C3352.113037,1887.674805 3350.192139,1883.409912 3347.740723,1879.475830 
	C3316.962646,1830.082886 3281.685303,1784.121460 3240.623535,1742.875488 
	C3074.954102,1576.461914 2873.092041,1495.077759 2639.743408,1488.625244 
	C2590.345459,1487.259155 2541.248291,1491.761475 2492.388672,1499.272217 
	C2398.096924,1513.767212 2308.549561,1542.847412 2223.681396,1586.241699 
	C1945.091064,1728.688354 1785.274780,1991.441406 1762.657837,2254.545654 
	C1761.518066,2267.804688 1760.071411,2281.085205 1757.814209,2294.191406 
	C1751.323975,2331.876221 1738.471436,2367.494629 1721.593384,2401.716309 
	C1686.228027,2473.421875 1635.726440,2533.049805 1575.251221,2584.644043 
	C1524.813599,2627.674805 1469.298828,2663.013184 1410.452026,2693.381104 
	C1304.245483,2748.188965 1212.324219,2821.063232 1136.697144,2913.703369 
	C1022.791260,3053.233643 959.875427,3213.112793 949.093140,3393.051270 
	C945.005737,3461.263184 950.664429,3529.018311 965.149658,3595.741455 
	C1000.659058,3759.308105 1079.532837,3898.657471 1200.808105,4014.093750 
	C1255.258301,4065.922119 1295.867432,4127.053223 1321.653076,4197.796387 
	C1344.237183,4259.756348 1350.413086,4323.371094 1340.761475,4388.628906 
	C1335.661865,4423.109863 1325.997559,4456.229492 1312.605591,4488.318359 
	C1283.452637,4558.171387 1264.027832,4630.515625 1254.788208,4705.745117 
	C1244.788452,4787.164062 1247.557251,4867.976562 1263.061890,4948.435059 
	C1293.542603,5106.610352 1364.769653,5244.008789 1477.875854,5358.310547 
	C1641.923218,5524.091797 1843.195435,5604.648438 2075.057373,5611.555664 
	C2125.797607,5613.066895 2176.221680,5608.587891 2226.389893,5600.752441 
	C2338.271973,5583.277344 2443.217041,5546.166504 2540.391846,5488.197754 
	C2718.750000,5381.800293 2844.660156,5231.659180 2913.982910,5035.224609 
	C2943.965088,4950.267090 2957.977783,4862.453613 2958.506592,4772.435547 
	C2958.593018,4757.756836 2959.222900,4743.236328 2962.733398,4728.807129 
	C2972.100586,4690.303711 2991.590820,4657.398438 3017.382568,4627.902344 
	C3043.951904,4597.517090 3075.454102,4573.064453 3109.793457,4552.133301 
	C3154.373779,4524.959961 3201.871582,4504.113770 3251.410645,4487.944336 
	C3291.338379,4474.912598 3330.575439,4460.214844 3370.941162,4443.759766 
	C3379.636230,4453.742676 3388.491455,4463.591797 3396.992676,4473.737305 
	C3413.615967,4493.576172 3428.977783,4514.562988 3449.444092,4530.859375 
	C3471.775391,4548.641113 3494.187744,4566.320312 3516.474365,4584.157715 
	C3521.092285,4587.853516 3525.312012,4592.047363 3527.667236,4597.996582 
	C3475.895508,4632.313965 3427.057861,4670.397461 3381.840576,4712.982422 
	C3229.796143,4856.173828 3125.650391,5028.552246 3068.177490,5229.220703 
	C3047.572998,5301.161621 3034.600342,5374.563477 3029.036133,5449.123047 
	C3025.466309,5496.958008 3024.624268,5544.919434 3027.399902,5592.942871 
	C3029.979004,5637.567871 3034.786865,5681.857910 3042.446289,5725.869629 
	C3046.782715,5750.788086 3052.028076,5775.601074 3055.071045,5800.679199 
	C3059.976807,5841.109375 3067.416748,5880.952148 3078.562988,5920.089355 
	C3144.539795,6151.748047 3311.883789,6336.233398 3536.039551,6424.080566 
	C3602.772705,6450.233887 3671.843506,6467.084961 3743.416260,6472.545410 
	C3779.939209,6475.332520 3816.536133,6477.427246 3853.137695,6478.846680 
	C3932.375977,6481.920898 4011.633057,6484.548828 4090.893799,6486.987793 
	C4142.181152,6488.565430 4193.484375,6489.811523 4244.789551,6490.627930 
	C4342.742676,6492.186035 4440.700684,6494.156738 4538.660645,6494.448730 
	C4670.612305,6494.841797 4802.571777,6494.219238 4934.521973,6493.251465 
	C5029.149414,6492.557617 5123.777344,6491.045898 5218.387207,6489.063965 
	C5329.648926,6486.733398 5440.895020,6483.621582 5552.141113,6480.609863 
	C5611.428223,6479.004883 5670.704590,6477.001953 5729.979004,6474.976562 
	C5764.607910,6473.793457 5799.233887,6472.417969 5833.843750,6470.765625 
	C5901.060059,6467.557129 5968.263184,6464.054688 6035.475586,6460.749512 
	C6074.741211,6458.818848 6114.019531,6457.120605 6153.283691,6455.155762 
	C6179.235352,6453.857910 6205.183105,6452.422363 6231.115234,6450.782227 
	C6283.640137,6447.460449 6336.152832,6443.941406 6388.672363,6440.533203 
	C6435.875000,6437.468750 6483.083008,6434.479004 6530.279297,6431.320312 
	C6533.408203,6431.111328 6536.458984,6429.748535 6540.682617,6428.618652 
	C6540.682617,6421.498047 6540.682129,6414.892578 6540.682617,6408.287109 
	C6540.691406,6318.974609 6540.705078,6229.662598 6540.687012,6140.350098 
	C6540.686523,6137.702148 6540.357910,6135.053711 6543.775879,6132.094727 
	C6559.051758,6130.984375 6574.319824,6129.755859 6589.604492,6128.785156 
	C6640.776855,6125.534668 6691.961914,6122.470215 6743.129883,6119.145996 
	C6771.037598,6117.333008 6798.913086,6115.020996 6826.817383,6113.156738 
	C6850.501465,6111.574219 6874.206543,6110.310547 6897.921875,6108.904785 
	C6898.213379,6114.742676 6893.555664,6115.761230 6890.807617,6118.310547 
	C6879.602051,6128.710449 6867.360840,6138.186035 6857.293945,6149.585449 
	C6826.506348,6184.447754 6810.541992,6225.372070 6812.800781,6272.145508 
	C6814.943848,6316.522949 6833.041992,6354.467773 6863.637207,6386.376953 
	C6900.406738,6424.727051 6945.908203,6446.695312 6997.776855,6455.931152 
	C7011.310059,6458.340820 7024.974609,6461.623047 7038.582031,6459.258789 
	C7039.513184,6457.413574 7040.582520,6456.284180 7040.583496,6455.153320 
	C7040.741211,6194.057129 7040.827637,5932.960449 7040.848145,5671.864258 
	C7040.848633,5670.018066 7039.918945,5668.171875 7039.140625,5665.271484 
	C7033.336426,5665.007812 7027.507812,5664.564453 7021.675293,5664.504395 
	C6922.445312,5663.483398 6823.215332,5662.515625 6723.984863,5661.523438 
	C6662.715820,5660.911133 6601.446777,5660.277832 6540.793945,5655.991211 
	C6540.757324,5596.018555 6540.784180,5536.046387 6540.591309,5476.074219 
	C6540.570312,5469.678711 6542.604492,5462.750488 6537.158203,5456.173340 
	C6496.511719,5453.688965 6455.356445,5451.093750 6414.191406,5448.678711 
	C6369.639648,5446.065430 6325.078613,5443.598145 6280.519531,5441.103516 
	C6206.030762,5436.933105 6131.544434,5432.710938 6057.048828,5428.664062 
	C5995.853027,5425.339844 5934.645020,5422.251953 5873.444336,5419.005371 
	C5869.463379,5418.793945 5865.506348,5418.123535 5861.770020,5416.270996 
	C5861.689453,5415.317871 5861.441895,5414.410156 5864.130371,5412.922852 
	C5970.028320,5386.366211 6076.085449,5360.423340 6181.791992,5333.125488 
	C6401.156738,5276.476074 6568.046875,5149.663086 6683.253418,4954.862793 
	C6710.088867,4909.487305 6732.073242,4861.713867 6749.518066,4809.283691 
	C6763.833496,4801.223633 6770.651855,4788.185547 6775.246094,4772.937500 
	C6792.138184,4716.876465 6808.764160,4660.792480 6821.147949,4603.478027 
	C6834.775879,4540.405273 6846.736816,4477.123535 6852.560547,4412.791992 
	C6853.878906,4398.229980 6854.895020,4383.612305 6856.979004,4369.154297 
	C6861.449707,4338.129883 6862.049805,4306.804199 6863.153809,4275.646973 
	C6865.111328,4220.413086 6864.580078,4165.093262 6860.004395,4109.912598 
	C6858.246094,4088.702881 6857.631836,4067.364502 6855.023438,4046.266846 
	C6850.786621,4011.990967 6845.265625,3977.875244 6840.418457,3943.673096 
	C6834.815918,3904.139404 6826.305176,3865.186523 6817.324707,3826.320312 
	C6799.317871,3748.389404 6776.218750,3671.971436 6747.630371,3597.301514 
	C6732.164551,3556.905762 6715.871094,3516.763916 6698.188965,3477.297119 
	C6679.407715,3435.376709 6659.244141,3394.091064 6637.434570,3353.556396 
	C6607.739258,3298.365479 6576.092773,3244.395508 6542.098145,3191.807373 
	C6489.988770,3111.194336 6433.563965,3033.698242 6371.324707,2960.564697 
	C6339.400391,2923.052246 6307.961914,2885.007080 6274.120605,2849.270508 
	C6212.265625,2783.952637 6148.842285,2720.115479 6080.263184,2661.679932 
	C6049.856445,2635.770020 6020.083496,2609.074707 5988.966309,2584.048828 
	C5926.686523,2533.959961 5862.560547,2486.281494 5796.108887,2441.822998 
	C5718.562988,2389.941895 5638.853516,2341.713867 5556.563965,2297.612061 
	C5494.248535,2264.215332 5430.672363,2233.546631 5365.773926,2205.740723 
	C5289.874512,2173.221924 5212.527344,2144.343262 5133.231445,2121.024658 
	C5089.833008,2108.262207 5046.134277,2096.647949 5001.816406,2087.373047 
	C4963.416504,2079.336914 4924.815918,2072.772705 4886.020508,2066.889160 
	C4853.078125,2061.893799 4819.942383,2058.428955 4786.885254,2056.982666 
	C4725.724121,2054.306641 4664.493652,2054.332520 4603.505859,2063.262939 
	C4557.998535,2069.926514 4513.053223,2078.375977 4469.086914,2091.975830 
	C4460.918457,2094.502686 4452.225098,2095.333496 4440.702637,2096.085205 
z"/>
<path fill="#6F4A76" opacity="1.000000" stroke="none" 
	d="
M6747.773926,4811.228027 
	C6732.073242,4861.713867 6710.088867,4909.487305 6683.253418,4954.862793 
	C6568.046875,5149.663086 6401.156738,5276.476074 6181.791992,5333.125488 
	C6076.085449,5360.423340 5970.028320,5386.366211 5861.773438,5411.836914 
	C5853.282227,5402.398438 5844.590332,5400.187500 5834.797852,5400.175781 
	C5819.466309,5400.158203 5803.797363,5401.838867 5788.883789,5399.259277 
	C5767.621094,5395.581055 5746.430664,5396.722656 5725.203613,5395.892090 
	C5720.550781,5395.709961 5715.893066,5395.471191 5711.258789,5395.030762 
	C5702.033691,5394.154785 5692.843750,5392.667480 5683.602539,5392.261230 
	C5670.289551,5391.675293 5656.563477,5393.757324 5643.702637,5391.213867 
	C5624.438477,5387.404297 5605.238281,5388.813477 5586.015625,5387.906250 
	C5579.378906,5387.593262 5572.737793,5387.255371 5566.120117,5386.676270 
	C5558.208984,5385.984863 5550.337891,5384.597168 5542.418945,5384.275879 
	C5529.768555,5383.761719 5516.742676,5385.690430 5504.506836,5383.322266 
	C5483.945312,5379.343750 5463.389648,5380.730957 5442.827637,5379.918457 
	C5438.169922,5379.734863 5433.199219,5380.517578 5428.915527,5379.152344 
	C5417.159180,5375.405273 5405.172852,5376.388672 5393.231445,5376.127441 
	C5382.568359,5375.893555 5371.561035,5377.523926 5361.305664,5375.415527 
	C5339.463379,5370.924805 5317.530273,5372.727539 5295.637207,5371.887695 
	C5291.645996,5371.734375 5287.362305,5372.274902 5283.731445,5371.008789 
	C5273.979004,5367.607910 5263.995605,5368.327637 5254.039062,5368.154297 
	C5241.375488,5367.933105 5228.343262,5369.687012 5216.127930,5367.267578 
	C5196.221191,5363.322754 5176.338867,5364.753418 5156.445312,5363.903320 
	C5150.469238,5363.648438 5144.488770,5363.338867 5138.532227,5362.808105 
	C5129.960938,5362.043457 5121.429199,5360.640625 5112.846680,5360.260742 
	C5100.865723,5359.729004 5088.500488,5361.667480 5076.932129,5359.367676 
	C5055.722168,5355.151855 5034.482910,5356.761230 5013.256836,5355.914062 
	C5009.264160,5355.754883 5005.000000,5356.426270 5001.330566,5355.249512 
	C4988.947266,5351.280762 4976.268066,5352.388184 4963.660156,5352.117188 
	C4952.997070,5351.887695 4941.950195,5353.559082 4931.748047,5351.317383 
	C4912.541504,5347.096680 4893.292480,5348.774902 4874.065430,5347.936035 
	C4868.078125,5347.674805 4861.729492,5348.653320 4856.177246,5346.975586 
	C4845.663574,5343.801270 4835.086914,5344.394531 4824.470215,5344.140137 
	C4811.147949,5343.820801 4797.562500,5345.074219 4784.580566,5342.824219 
	C4773.283203,5340.865723 4762.152344,5340.400879 4750.874023,5340.122070 
	C4738.217773,5339.809082 4725.270020,5341.159180 4712.984375,5338.888184 
	C4701.020996,5336.677734 4689.225098,5336.357910 4677.281250,5336.110352 
	C4665.951660,5335.875488 4654.221191,5337.615723 4643.375000,5335.245605 
	C4624.147949,5331.044434 4604.911133,5332.829590 4585.690430,5331.923340 
	C4579.704590,5331.641113 4573.356934,5332.598145 4567.806152,5330.911133 
	C4557.949219,5327.914551 4548.053223,5328.334961 4538.100586,5328.141113 
	C4526.770996,5327.920410 4515.065918,5329.616699 4504.186523,5327.329590 
	C4484.307129,5323.151367 4464.399902,5324.774414 4444.506836,5323.913086 
	C4438.530273,5323.653809 4432.548828,5323.363770 4426.591797,5322.833984 
	C4418.020020,5322.071777 4409.486816,5320.646484 4400.904297,5320.278809 
	C4386.261719,5319.649902 4371.344238,5321.171875 4357.012695,5318.866211 
	C4345.052246,5316.940918 4333.255371,5316.408691 4321.312500,5316.111816 
	C4310.654785,5315.845703 4299.636719,5317.278320 4289.425781,5315.024902 
	C4276.145996,5312.093750 4262.972656,5312.679199 4249.718262,5312.068359 
	C4233.824707,5311.336426 4217.709961,5313.860352 4202.088379,5308.675293 
	C4199.690430,5307.879883 4196.768555,5308.268066 4194.151855,5308.601562 
	C4186.696777,5309.552734 4180.656250,5316.189453 4180.372559,5323.420898 
	C4180.119629,5329.871582 4184.598633,5336.869629 4191.009766,5338.740234 
	C4194.760742,5339.834961 4198.870605,5339.826660 4202.833496,5340.043945 
	C4210.144531,5340.446289 4217.812988,5339.375488 4224.698730,5341.248535 
	C4233.954102,5343.765625 4243.128906,5343.683105 4252.416504,5343.861816 
	C4264.413086,5344.092285 4276.799805,5342.326660 4288.323242,5344.741211 
	C4307.561523,5348.774414 4326.785156,5347.193359 4346.008301,5348.092773 
	C4352.644531,5348.403320 4359.285645,5348.746582 4365.902832,5349.324707 
	C4373.815430,5350.015625 4381.687988,5351.426758 4389.607422,5351.719238 
	C4403.593262,5352.235352 4417.960449,5350.215332 4431.515137,5352.750488 
	C4452.102539,5356.601074 4472.633789,5355.290039 4493.193359,5356.099609 
	C4497.851562,5356.282715 4502.822266,5355.503418 4507.106934,5356.868652 
	C4518.861328,5360.612793 4530.846191,5359.592285 4542.784668,5359.912598 
	C4553.440918,5360.198730 4564.439453,5358.804688 4574.672363,5361.007324 
	C4587.285156,5363.722168 4599.772949,5363.619141 4612.379395,5363.880859 
	C4624.375977,5364.129883 4636.769531,5362.329590 4648.284180,5364.764160 
	C4666.861816,5368.691406 4685.405273,5367.263184 4703.964355,5368.078613 
	C4709.286133,5368.312500 4714.956055,5367.447266 4719.858398,5369.001465 
	C4730.339844,5372.324707 4740.946289,5371.646484 4751.562012,5371.855469 
	C4763.558594,5372.091309 4775.911621,5370.378418 4787.478516,5372.682617 
	C4807.365234,5376.644531 4827.255859,5375.309570 4847.151855,5376.104004 
	C4851.800781,5376.289551 4856.448730,5376.610840 4861.081055,5377.042969 
	C4870.309570,5377.902344 4879.508789,5379.342773 4888.752930,5379.707031 
	C4903.401855,5380.283203 4918.444824,5378.200684 4932.648926,5380.848633 
	C4950.608398,5384.197266 4968.442383,5383.233398 4986.334961,5384.086426 
	C4992.968262,5384.402832 4999.600098,5384.825684 5006.215332,5385.401855 
	C5014.131348,5386.090820 5022.013184,5387.418457 5029.937500,5387.715332 
	C5044.585938,5388.264160 5059.566895,5386.484863 5073.829590,5388.984863 
	C5088.468750,5391.550781 5102.937988,5391.493164 5117.528809,5391.921387 
	C5124.857422,5392.136719 5132.495605,5390.842773 5139.469238,5392.473145 
	C5161.888184,5397.714844 5184.572266,5395.093750 5207.120117,5396.105957 
	C5213.100586,5396.373535 5219.090820,5396.569824 5225.051270,5397.088379 
	C5234.281738,5397.891113 5243.471191,5399.347168 5252.712891,5399.784668 
	C5264.691406,5400.351562 5277.104004,5398.312500 5288.612305,5400.765137 
	C5307.854980,5404.865234 5327.079102,5403.161133 5346.299805,5404.074707 
	C5352.285645,5404.358887 5358.632812,5403.399414 5364.184082,5405.084961 
	C5374.042969,5408.079102 5383.939453,5407.660645 5393.893066,5407.853516 
	C5405.222656,5408.073242 5416.934570,5406.355957 5427.806641,5408.660645 
	C5448.348145,5413.014160 5468.932129,5411.155762 5489.486328,5412.098633 
	C5494.796387,5412.341797 5500.108398,5412.666016 5505.400879,5413.157227 
	C5513.969727,5413.952148 5522.505371,5415.360352 5531.087402,5415.707031 
	C5544.403809,5416.244629 5558.101074,5414.231934 5571.000488,5416.668945 
	C5593.559082,5420.931152 5616.121582,5419.220703 5638.677246,5420.110352 
	C5642.006836,5420.241699 5645.551270,5419.561523 5648.637695,5420.473145 
	C5665.619141,5425.485352 5683.029297,5423.346680 5700.263672,5424.065430 
	C5705.584961,5424.287109 5711.239258,5423.479492 5716.153320,5425.019043 
	C5725.981445,5428.098633 5735.897949,5427.643555 5745.859863,5427.811523 
	C5760.520508,5428.059082 5775.557129,5426.294922 5789.749023,5428.991211 
	C5807.724609,5432.405762 5825.574707,5430.951660 5843.445312,5432.115723 
	C5854.183105,5432.813965 5859.519043,5427.503906 5861.538086,5417.666016 
	C5865.506348,5418.123535 5869.463379,5418.793945 5873.444336,5419.005371 
	C5934.645020,5422.251953 5995.853027,5425.339844 6057.048828,5428.664062 
	C6131.544434,5432.710938 6206.030762,5436.933105 6280.519531,5441.103516 
	C6325.078613,5443.598145 6369.639648,5446.065430 6414.191406,5448.678711 
	C6455.356445,5451.093750 6496.511719,5453.688965 6537.158203,5456.173340 
	C6542.604492,5462.750488 6540.570312,5469.678711 6540.591309,5476.074219 
	C6540.784180,5536.046387 6540.757324,5596.018555 6540.762695,5659.701172 
	C6540.694824,5813.102051 6540.663086,5962.793457 6540.602539,6112.484863 
	C6540.599609,6119.125000 6540.328613,6125.765625 6540.182129,6132.405762 
	C6540.357910,6135.053711 6540.686523,6137.702148 6540.687012,6140.350098 
	C6540.705078,6229.662598 6540.691406,6318.974609 6540.682617,6408.287109 
	C6540.682129,6414.892578 6540.682617,6421.498047 6540.682617,6428.618652 
	C6536.458984,6429.748535 6533.408203,6431.111328 6530.279297,6431.320312 
	C6483.083008,6434.479004 6435.875000,6437.468750 6388.672363,6440.533203 
	C6336.152832,6443.941406 6283.640137,6447.460449 6231.115234,6450.782227 
	C6205.183105,6452.422363 6179.235352,6453.857910 6153.283691,6455.155762 
	C6114.019531,6457.120605 6074.741211,6458.818848 6035.475586,6460.749512 
	C5968.263184,6464.054688 5901.060059,6467.557129 5833.843750,6470.765625 
	C5799.233887,6472.417969 5764.607910,6473.793457 5729.979004,6474.976562 
	C5670.704590,6477.001953 5611.428223,6479.004883 5552.141113,6480.609863 
	C5440.895020,6483.621582 5329.648926,6486.733398 5218.387207,6489.063965 
	C5123.777344,6491.045898 5029.149414,6492.557617 4934.521973,6493.251465 
	C4802.571777,6494.219238 4670.612305,6494.841797 4538.660645,6494.448730 
	C4440.700684,6494.156738 4342.742676,6492.186035 4244.789551,6490.627930 
	C4193.484375,6489.811523 4142.181152,6488.565430 4090.893799,6486.987793 
	C4011.633057,6484.548828 3932.375977,6481.920898 3853.137695,6478.846680 
	C3816.536133,6477.427246 3779.939209,6475.332520 3743.416260,6472.545410 
	C3671.843506,6467.084961 3602.772705,6450.233887 3536.039551,6424.080566 
	C3311.883789,6336.233398 3144.539795,6151.748047 3078.562988,5920.089355 
	C3067.416748,5880.952148 3059.976807,5841.109375 3055.071045,5800.679199 
	C3052.028076,5775.601074 3046.782715,5750.788086 3042.446289,5725.869629 
	C3034.786865,5681.857910 3029.979004,5637.567871 3027.399902,5592.942871 
	C3024.624268,5544.919434 3025.466309,5496.958008 3029.036133,5449.123047 
	C3034.600342,5374.563477 3047.572998,5301.161621 3068.177490,5229.220703 
	C3125.650391,5028.552246 3229.796143,4856.173828 3381.840576,4712.982422 
	C3427.057861,4670.397461 3475.895508,4632.313965 3529.916748,4597.359863 
	C3560.479492,4614.126465 3588.547119,4631.946289 3617.157715,4648.846191 
	C3674.246826,4682.567871 3735.148438,4707.243652 3799.475342,4723.258301 
	C3844.781494,4734.537109 3890.662842,4741.787598 3937.572998,4740.613770 
	C3943.565674,4740.463867 3949.568848,4740.474609 3955.561523,4740.629395 
	C4002.446045,4741.836914 4048.326904,4734.946289 4093.728027,4723.855957 
	C4132.697754,4714.337891 4170.209473,4700.546875 4205.751465,4682.270020 
	C4246.678223,4661.224121 4284.243164,4635.113281 4318.986328,4604.488281 
	C4345.742188,4580.903809 4368.223145,4554.039551 4389.025391,4525.596191 
	C4421.569824,4481.099121 4443.530273,4431.175781 4460.495117,4379.027344 
	C4476.767090,4329.008789 4487.569824,4277.644043 4497.986816,4225.580078 
	C4507.859863,4222.866699 4516.201660,4220.558594 4524.451172,4217.959473 
	C4569.536133,4203.751465 4614.598145,4189.471680 4660.251953,4176.510742 
	C4667.653320,4191.732422 4677.109863,4203.639160 4688.271484,4214.344238 
	C4711.956543,4237.060059 4738.738770,4255.633301 4766.458496,4272.916016 
	C4838.954590,4318.115234 4915.642578,4355.282715 4993.529297,4389.974609 
	C5113.971680,4443.621094 5236.976562,4490.865234 5361.438477,4534.270020 
	C5464.481445,4570.204102 5568.290527,4603.820312 5672.933594,4634.851074 
	C5760.313965,4660.763672 5848.097168,4685.204102 5936.377441,4707.841797 
	C6040.108398,4734.440918 6144.459961,4758.375488 6249.622070,4778.615234 
	C6291.398926,4786.654785 6333.397949,4793.591797 6375.397949,4800.402832 
	C6405.581055,4805.297852 6435.868164,4809.688965 6466.226074,4813.325195 
	C6499.886230,4817.357910 6533.618652,4821.246094 6567.433594,4823.382324 
	C6595.979004,4825.186035 6624.696777,4824.955566 6653.322754,4824.543945 
	C6670.559082,4824.295898 6687.871094,4822.729492 6704.954590,4820.359863 
	C6719.372559,4818.359863 6733.511719,4814.348633 6747.773926,4811.228027 
z"/>
<path fill="#233960" opacity="1.000000" stroke="none" 
	d="
M3368.621094,4442.393555 
	C3330.575439,4460.214844 3291.338379,4474.912598 3251.410645,4487.944336 
	C3201.871582,4504.113770 3154.373779,4524.959961 3109.793457,4552.133301 
	C3075.454102,4573.064453 3043.951904,4597.517090 3017.382568,4627.902344 
	C2991.590820,4657.398438 2972.100586,4690.303711 2962.733398,4728.807129 
	C2959.222900,4743.236328 2958.593018,4757.756836 2958.506592,4772.435547 
	C2957.977783,4862.453613 2943.965088,4950.267090 2913.982910,5035.224609 
	C2844.660156,5231.659180 2718.750000,5381.800293 2540.391846,5488.197754 
	C2443.217041,5546.166504 2338.271973,5583.277344 2226.389893,5600.752441 
	C2176.221680,5608.587891 2125.797607,5613.066895 2075.057373,5611.555664 
	C1843.195435,5604.648438 1641.923218,5524.091797 1477.875854,5358.310547 
	C1364.769653,5244.008789 1293.542603,5106.610352 1263.061890,4948.435059 
	C1247.557251,4867.976562 1244.788452,4787.164062 1254.788208,4705.745117 
	C1264.027832,4630.515625 1283.452637,4558.171387 1312.605591,4488.318359 
	C1325.997559,4456.229492 1335.661865,4423.109863 1340.761475,4388.628906 
	C1350.413086,4323.371094 1344.237183,4259.756348 1321.653076,4197.796387 
	C1295.867432,4127.053223 1255.258301,4065.922119 1200.808105,4014.093750 
	C1079.532837,3898.657471 1000.659058,3759.308105 965.149658,3595.741455 
	C950.664429,3529.018311 945.005737,3461.263184 949.093140,3393.051270 
	C959.875427,3213.112793 1022.791260,3053.233643 1136.697144,2913.703369 
	C1212.324219,2821.063232 1304.245483,2748.188965 1410.452026,2693.381104 
	C1469.298828,2663.013184 1524.813599,2627.674805 1575.251221,2584.644043 
	C1635.726440,2533.049805 1686.228027,2473.421875 1721.593384,2401.716309 
	C1738.471436,2367.494629 1751.323975,2331.876221 1757.814209,2294.191406 
	C1760.071411,2281.085205 1761.518066,2267.804688 1762.657837,2254.545654 
	C1785.274780,1991.441406 1945.091064,1728.688354 2223.681396,1586.241699 
	C2308.549561,1542.847412 2398.096924,1513.767212 2492.388672,1499.272217 
	C2541.248291,1491.761475 2590.345459,1487.259155 2639.743408,1488.625244 
	C2873.092041,1495.077759 3074.954102,1576.461914 3240.623535,1742.875488 
	C3281.685303,1784.121460 3316.962646,1830.082886 3347.740723,1879.475830 
	C3350.192139,1883.409912 3352.113037,1887.674805 3353.174805,1893.574951 
	C3351.040039,1897.755371 3349.348145,1900.075073 3349.080811,1902.548584 
	C3344.445557,1945.464233 3327.173584,1983.161987 3302.006348,2017.668213 
	C3267.328857,2065.213867 3221.023193,2098.073486 3168.633057,2123.197998 
	C3165.851318,2124.532227 3162.396240,2124.462891 3158.589111,2125.170654 
	C3156.093750,2118.958008 3153.828125,2113.482666 3151.686279,2107.959229 
	C3135.854736,2067.132324 3110.709961,2033.191284 3075.080566,2007.747437 
	C3027.049561,1973.447388 2973.709229,1958.908325 2914.667725,1967.248169 
	C2844.975830,1977.092041 2791.478271,2012.231201 2754.527832,2071.589111 
	C2726.042969,2117.347900 2716.293213,2167.788574 2724.530273,2221.113281 
	C2729.133789,2250.915039 2738.311523,2279.358643 2756.155762,2305.842773 
	C2754.765137,2312.591064 2753.484863,2317.717285 2752.296387,2322.864746 
	C2749.512451,2334.919922 2751.674072,2345.223633 2762.351562,2354.022461 
	C2760.713135,2369.030518 2759.625977,2382.294678 2758.334473,2395.538574 
	C2758.260986,2396.293457 2756.513428,2396.885498 2754.572021,2398.224121 
	C2753.499756,2394.973145 2752.445312,2392.064453 2751.578125,2389.101074 
	C2740.924561,2352.690674 2730.769775,2316.125732 2719.521240,2279.900635 
	C2709.838867,2248.719727 2698.285889,2218.158936 2683.030518,2189.189453 
	C2678.077393,2179.784424 2672.558594,2170.587158 2666.384033,2161.948975 
	C2662.593506,2156.645752 2657.556396,2151.891357 2652.212158,2148.117676 
	C2643.141602,2141.712646 2634.512451,2143.422607 2627.990723,2152.638428 
	C2624.572266,2157.468994 2621.601807,2162.928955 2619.833252,2168.547119 
	C2616.647461,2178.667236 2613.641846,2188.994385 2612.142334,2199.461670 
	C2609.596680,2217.229492 2608.052490,2235.153564 2606.489502,2253.047119 
	C2602.771484,2295.613281 2603.574707,2338.218750 2606.226807,2380.797363 
	C2607.280029,2397.704834 2608.115967,2414.571045 2607.932373,2432.216309 
	C2605.990723,2431.164551 2605.014893,2430.958496 2604.900635,2430.525146 
	C2603.203857,2424.092529 2601.577393,2417.640625 2600.018311,2411.173096 
	C2585.658203,2351.596436 2569.514893,2292.536865 2548.322266,2234.972656 
	C2538.882324,2209.332031 2528.969971,2183.819092 2514.256104,2160.642578 
	C2508.955078,2152.292969 2502.683594,2144.230713 2495.496582,2137.484619 
	C2484.872559,2127.511963 2472.817627,2129.588379 2465.640625,2142.559326 
	C2461.193848,2150.595947 2458.358154,2159.668457 2455.760498,2168.557129 
	C2447.656006,2196.288330 2446.392578,2225.081787 2445.203613,2253.590332 
	C2443.760742,2288.179688 2444.521729,2322.885742 2445.131836,2357.527100 
	C2445.518311,2379.481201 2447.410400,2401.407471 2448.510010,2423.352295 
	C2448.651367,2426.169434 2448.086670,2429.021973 2447.849121,2431.858154 
	C2444.195068,2428.542969 2442.796387,2425.026367 2441.578369,2421.447998 
	C2434.287109,2400.024658 2427.478760,2378.424316 2419.658203,2357.196777 
	C2410.672852,2332.806641 2400.706055,2308.736816 2386.201416,2286.999268 
	C2381.083252,2279.329102 2374.974121,2271.995117 2368.077881,2265.913330 
	C2358.155029,2257.162842 2348.366943,2258.809326 2341.200928,2270.160645 
	C2336.999756,2276.815430 2333.955566,2284.406250 2331.540771,2291.944336 
	C2324.590088,2313.641357 2321.787354,2336.258057 2320.657471,2358.793457 
	C2316.882080,2434.083984 2318.852295,2509.364746 2325.161133,2584.447998 
	C2328.893311,2628.865967 2334.192139,2673.172119 2339.691650,2717.416016 
	C2344.944580,2759.678223 2350.374512,2801.964111 2357.528564,2843.932617 
	C2366.807617,2898.366943 2377.144287,2952.647705 2388.346680,3006.721191 
	C2402.935547,3077.141602 2420.489502,3146.864014 2443.399902,3215.107422 
	C2460.157471,3265.022217 2480.374512,3313.599365 2502.155029,3361.498047 
	C2521.827881,3404.760986 2546.596436,3444.976562 2577.337891,3481.326904 
	C2586.364746,3492.000732 2596.623535,3501.638672 2605.555908,3512.384521 
	C2638.351074,3551.838135 2670.830322,3591.554199 2703.419189,3631.179443 
	C2755.476318,3694.476562 2807.487305,3757.811523 2859.589355,3821.071533 
	C2918.892578,3893.074951 2978.308838,3964.984863 3037.612549,4036.987793 
	C3103.693115,4117.219238 3169.712158,4197.500488 3235.739014,4277.775879 
	C3277.217529,4328.205566 3318.693848,4378.636719 3360.057617,4429.160156 
	C3363.365234,4433.200195 3365.787598,4437.965332 3368.621094,4442.393555 
z"/>
<path fill="#FBCC7C" opacity="1.000000" stroke="none" 
	d="
M6748.645996,4810.255859 
	C6733.511719,4814.348633 6719.372559,4818.359863 6704.954590,4820.359863 
	C6687.871094,4822.729492 6670.559082,4824.295898 6653.322754,4824.543945 
	C6624.696777,4824.955566 6595.979004,4825.186035 6567.433594,4823.382324 
	C6533.618652,4821.246094 6499.886230,4817.357910 6466.226074,4813.325195 
	C6435.868164,4809.688965 6405.581055,4805.297852 6375.397949,4800.402832 
	C6333.397949,4793.591797 6291.398926,4786.654785 6249.622070,4778.615234 
	C6144.459961,4758.375488 6040.108398,4734.440918 5936.377441,4707.841797 
	C5848.097168,4685.204102 5760.313965,4660.763672 5672.933594,4634.851074 
	C5568.290527,4603.820312 5464.481445,4570.204102 5361.438477,4534.270020 
	C5236.976562,4490.865234 5113.971680,4443.621094 4993.529297,4389.974609 
	C4915.642578,4355.282715 4838.954590,4318.115234 4766.458496,4272.916016 
	C4738.738770,4255.633301 4711.956543,4237.060059 4688.271484,4214.344238 
	C4677.109863,4203.639160 4667.653320,4191.732422 4660.184570,4174.745117 
	C4658.061035,4143.296875 4665.106934,4116.313965 4673.299316,4089.565186 
	C4686.953613,4044.981689 4704.796387,4001.991943 4724.312500,3959.737305 
	C4738.805176,3928.359863 4754.682617,3897.622803 4769.816406,3866.538818 
	C4770.884277,3864.345703 4770.911621,3861.645996 4771.473145,3858.937988 
	C4764.732422,3854.661865 4758.611816,3850.730713 4752.444336,3846.875244 
	C4692.023926,3809.106445 4634.831543,3766.886719 4579.674805,3721.838867 
	C4576.176758,3718.982178 4571.786621,3717.216797 4567.823242,3713.298828 
	C4568.156250,3707.720703 4568.212402,3703.743896 4568.845703,3699.861572 
	C4571.161133,3685.657227 4573.684570,3671.486816 4576.099609,3657.298584 
	C4579.723633,3636.011475 4583.497070,3614.747803 4586.866211,3593.420410 
	C4589.011230,3579.837402 4590.538574,3566.156982 4594.090820,3552.321289 
	C4608.379883,3550.813232 4620.893555,3549.083984 4633.466797,3548.292725 
	C4652.988281,3547.063965 4671.519043,3541.645752 4689.453613,3534.648193 
	C4714.078613,3525.040039 4735.520508,3511.029297 4748.750977,3486.761719 
	C4760.701172,3464.843018 4767.626465,3441.379639 4771.661133,3416.983154 
	C4774.042969,3402.581055 4775.556152,3388.034180 4777.398438,3373.544678 
	C4780.998047,3345.237549 4784.769043,3316.949707 4788.047852,3288.605225 
	C4790.032227,3271.457031 4791.338379,3254.226807 4792.753418,3237.017334 
	C4795.092773,3208.564209 4798.945801,3180.111328 4799.180176,3151.634277 
	C4799.704590,3087.778564 4802.833984,3023.861572 4796.579590,2960.048096 
	C4794.703613,2940.906494 4794.496582,2921.616699 4792.833008,2902.381348 
	C4789.683594,2865.970459 4786.205078,2829.647949 4780.398438,2793.573242 
	C4773.543457,2750.979492 4766.495117,2708.415771 4759.291016,2665.879883 
	C4758.301758,2660.035156 4756.572754,2654.122559 4754.053711,2648.774902 
	C4750.297852,2640.801758 4741.200195,2638.797119 4733.714355,2643.651367 
	C4726.890625,2648.076660 4724.026367,2654.227783 4725.820801,2662.409668 
	C4735.921875,2708.468750 4743.710938,2754.943848 4750.498047,2801.588135 
	C4752.696289,2816.694824 4754.479980,2831.874512 4755.968262,2847.068359 
	C4757.845215,2866.239258 4758.905273,2885.492432 4760.887695,2904.650879 
	C4764.651855,2941.018555 4768.004395,2977.429199 4767.922852,3014.003662 
	C4767.795410,3071.211914 4770.622559,3128.456787 4764.810059,3185.607666 
	C4762.122559,3212.034912 4761.632324,3238.679199 4759.692383,3265.191650 
	C4758.626953,3279.754883 4756.927246,3294.290527 4754.971680,3308.765381 
	C4751.506348,3334.411377 4748.052734,3360.072021 4743.788574,3385.592285 
	C4740.398926,3405.880615 4736.783691,3426.228516 4731.495605,3446.077637 
	C4725.293945,3469.354736 4712.263672,3488.779297 4690.483398,3500.292725 
	C4674.004883,3509.003906 4656.268066,3514.825195 4637.371582,3516.346436 
	C4623.479492,3517.465088 4609.608887,3518.902832 4595.758301,3520.464844 
	C4586.530273,3521.505371 4582.000977,3525.921631 4579.870605,3535.511719 
	C4579.299316,3538.083496 4579.441895,3540.813477 4577.431641,3543.565430 
	C4549.620605,3543.699219 4523.634766,3543.773193 4497.648438,3543.746094 
	C4492.996094,3543.741211 4488.012695,3544.309570 4483.758301,3542.888916 
	C4473.965820,3539.619629 4464.014648,3540.382568 4454.068848,3540.107178 
	C4442.753418,3539.793213 4431.381836,3540.099609 4420.134766,3539.058838 
	C4399.708008,3537.168701 4379.369629,3534.351318 4358.967285,3532.168701 
	C4342.488281,3530.405762 4325.892090,3529.579102 4309.489746,3527.307861 
	C4286.547363,3524.131348 4263.813965,3519.407471 4240.853516,3516.399170 
	C4195.432129,3510.447754 4150.773926,3500.505127 4106.200195,3490.454834 
	C4057.622314,3479.501709 4009.524414,3466.452393 3962.545410,3449.616699 
	C3951.973877,3445.828125 3940.970459,3443.244873 3928.950684,3439.169189 
	C3908.444824,3429.239014 3888.874512,3420.791992 3869.946045,3411.092529 
	C3852.780518,3402.296143 3836.067139,3392.517334 3823.144531,3377.568359 
	C3815.333496,3368.531982 3811.128174,3358.780273 3814.044678,3346.482910 
	C3815.410156,3340.725586 3815.257812,3334.610596 3815.815674,3328.659668 
	C3817.675293,3308.816895 3819.379639,3288.957520 3821.462158,3269.138184 
	C3823.334961,3251.314209 3825.689209,3233.541016 3827.714600,3215.732178 
	C3829.515869,3199.890381 3830.681885,3183.960938 3832.969971,3168.192627 
	C3837.546143,3136.659668 3842.457275,3105.170410 3847.676025,3073.737305 
	C3853.548828,3038.366699 3859.326172,3002.963135 3866.202148,2967.780518 
	C3876.525391,2914.956787 3888.641357,2862.518799 3902.193848,2810.411865 
	C3903.983398,2803.532227 3903.283203,2796.005371 3904.906250,2787.868652 
	C3908.194336,2782.124756 3910.745850,2777.429443 3912.347656,2772.429932 
	C3917.001221,2757.904297 3921.050781,2743.184326 3925.736328,2728.669434 
	C3943.487793,2673.680176 3962.961182,2619.384521 3986.238281,2566.389648 
	C4010.383057,2511.419678 4038.994385,2459.118652 4073.331787,2409.959473 
	C4083.194336,2395.839600 4094.287598,2382.570068 4104.995605,2369.052979 
	C4114.048340,2357.626465 4123.473145,2346.495361 4132.533691,2335.074951 
	C4149.019043,2314.294189 4164.345703,2292.490234 4182.008789,2272.773193 
	C4204.613770,2247.540283 4228.775391,2223.553955 4255.822754,2202.989014 
	C4310.019043,2161.781738 4367.972656,2127.061768 4432.576660,2104.452148 
	C4437.150879,2102.851318 4441.288574,2101.326416 4443.773926,2096.946777 
	C4452.225098,2095.333496 4460.918457,2094.502686 4469.086914,2091.975830 
	C4513.053223,2078.375977 4557.998535,2069.926514 4603.505859,2063.262939 
	C4664.493652,2054.332520 4725.724121,2054.306641 4786.885254,2056.982666 
	C4819.942383,2058.428955 4853.078125,2061.893799 4886.020508,2066.889160 
	C4924.815918,2072.772705 4963.416504,2079.336914 5001.816406,2087.373047 
	C5046.134277,2096.647949 5089.833008,2108.262207 5133.231445,2121.024658 
	C5212.527344,2144.343262 5289.874512,2173.221924 5365.773926,2205.740723 
	C5430.672363,2233.546631 5494.248535,2264.215332 5556.563965,2297.612061 
	C5638.853516,2341.713867 5718.562988,2389.941895 5796.108887,2441.822998 
	C5862.560547,2486.281494 5926.686523,2533.959961 5988.966309,2584.048828 
	C6020.083496,2609.074707 6049.856445,2635.770020 6080.263184,2661.679932 
	C6148.842285,2720.115479 6212.265625,2783.952637 6274.120605,2849.270508 
	C6307.961914,2885.007080 6339.400391,2923.052246 6371.324707,2960.564697 
	C6433.563965,3033.698242 6489.988770,3111.194336 6542.098145,3191.807373 
	C6576.092773,3244.395508 6607.739258,3298.365479 6637.434570,3353.556396 
	C6659.244141,3394.091064 6679.407715,3435.376709 6698.188965,3477.297119 
	C6715.871094,3516.763916 6732.164551,3556.905762 6747.630371,3597.301514 
	C6776.218750,3671.971436 6799.317871,3748.389404 6817.324707,3826.320312 
	C6826.305176,3865.186523 6834.815918,3904.139404 6840.418457,3943.673096 
	C6845.265625,3977.875244 6850.786621,4011.990967 6855.023438,4046.266846 
	C6857.631836,4067.364502 6858.246094,4088.702881 6860.004395,4109.912598 
	C6864.580078,4165.093262 6865.111328,4220.413086 6863.153809,4275.646973 
	C6862.049805,4306.804199 6861.449707,4338.129883 6856.979004,4369.154297 
	C6854.895020,4383.612305 6853.878906,4398.229980 6852.560547,4412.791992 
	C6846.736816,4477.123535 6834.775879,4540.405273 6821.147949,4603.478027 
	C6808.764160,4660.792480 6792.138184,4716.876465 6775.246094,4772.937500 
	C6770.651855,4788.185547 6763.833496,4801.223633 6748.645996,4810.255859 
z"/>
<path fill="#EB806E" opacity="1.000000" stroke="none" 
	d="
M3930.166016,3440.106689 
	C3940.970459,3443.244873 3951.973877,3445.828125 3962.545410,3449.616699 
	C4009.524414,3466.452393 4057.622314,3479.501709 4106.200195,3490.454834 
	C4150.773926,3500.505127 4195.432129,3510.447754 4240.853516,3516.399170 
	C4263.813965,3519.407471 4286.547363,3524.131348 4309.489746,3527.307861 
	C4325.892090,3529.579102 4342.488281,3530.405762 4358.967285,3532.168701 
	C4379.369629,3534.351318 4399.708008,3537.168701 4420.134766,3539.058838 
	C4431.381836,3540.099609 4442.753418,3539.793213 4454.068848,3540.107178 
	C4464.014648,3540.382568 4473.965820,3539.619629 4483.758301,3542.888916 
	C4488.012695,3544.309570 4492.996094,3543.741211 4497.648438,3543.746094 
	C4523.634766,3543.773193 4549.620605,3543.699219 4578.219727,3544.718018 
	C4584.669434,3548.024414 4588.506348,3550.272461 4592.342773,3552.520264 
	C4590.538574,3566.156982 4589.011230,3579.837402 4586.866211,3593.420410 
	C4583.497070,3614.747803 4579.723633,3636.011475 4576.099609,3657.298584 
	C4573.684570,3671.486816 4571.161133,3685.657227 4568.845703,3699.861572 
	C4568.212402,3703.743896 4568.156250,3707.720703 4567.402344,3714.936768 
	C4566.442871,3720.146729 4565.687988,3722.043213 4565.425293,3724.005615 
	C4557.120605,3785.947021 4548.725098,3847.876953 4540.641602,3909.847412 
	C4533.761719,3962.589600 4527.788574,4015.455322 4520.423340,4068.127686 
	C4513.059570,4120.791504 4504.466797,4173.283203 4496.412598,4225.850586 
	C4487.569824,4277.644043 4476.767090,4329.008789 4460.495117,4379.027344 
	C4443.530273,4431.175781 4421.569824,4481.099121 4389.025391,4525.596191 
	C4368.223145,4554.039551 4345.742188,4580.903809 4318.986328,4604.488281 
	C4284.243164,4635.113281 4246.678223,4661.224121 4205.751465,4682.270020 
	C4170.209473,4700.546875 4132.697754,4714.337891 4093.728027,4723.855957 
	C4048.326904,4734.946289 4002.446045,4741.836914 3955.561523,4740.629395 
	C3949.568848,4740.474609 3943.565674,4740.463867 3937.572998,4740.613770 
	C3890.662842,4741.787598 3844.781494,4734.537109 3799.475342,4723.258301 
	C3735.148438,4707.243652 3674.246826,4682.567871 3617.157715,4648.846191 
	C3588.547119,4631.946289 3560.479492,4614.126465 3530.940918,4596.367188 
	C3525.312012,4592.047363 3521.092285,4587.853516 3516.474365,4584.157715 
	C3494.187744,4566.320312 3471.775391,4548.641113 3449.444092,4530.859375 
	C3428.977783,4514.562988 3413.615967,4493.576172 3396.992676,4473.737305 
	C3388.491455,4463.591797 3379.636230,4453.742676 3369.781250,4443.076660 
	C3365.787598,4437.965332 3363.365234,4433.200195 3360.057617,4429.160156 
	C3318.693848,4378.636719 3277.217529,4328.205566 3235.739014,4277.775879 
	C3169.712158,4197.500488 3103.693115,4117.219238 3037.612549,4036.987793 
	C2978.308838,3964.984863 2918.892578,3893.074951 2859.589355,3821.071533 
	C2807.487305,3757.811523 2755.476318,3694.476562 2703.419189,3631.179443 
	C2670.830322,3591.554199 2638.351074,3551.838135 2605.555908,3512.384521 
	C2596.623535,3501.638672 2586.364746,3492.000732 2577.337891,3481.326904 
	C2546.596436,3444.976562 2521.827881,3404.760986 2502.155029,3361.498047 
	C2480.374512,3313.599365 2460.157471,3265.022217 2443.399902,3215.107422 
	C2420.489502,3146.864014 2402.935547,3077.141602 2388.346680,3006.721191 
	C2377.144287,2952.647705 2366.807617,2898.366943 2357.528564,2843.932617 
	C2350.374512,2801.964111 2344.944580,2759.678223 2339.691650,2717.416016 
	C2334.192139,2673.172119 2328.893311,2628.865967 2325.161133,2584.447998 
	C2318.852295,2509.364746 2316.882080,2434.083984 2320.657471,2358.793457 
	C2321.787354,2336.258057 2324.590088,2313.641357 2331.540771,2291.944336 
	C2333.955566,2284.406250 2336.999756,2276.815430 2341.200928,2270.160645 
	C2348.366943,2258.809326 2358.155029,2257.162842 2368.077881,2265.913330 
	C2374.974121,2271.995117 2381.083252,2279.329102 2386.201416,2286.999268 
	C2400.706055,2308.736816 2410.672852,2332.806641 2419.658203,2357.196777 
	C2427.478760,2378.424316 2434.287109,2400.024658 2441.578369,2421.447998 
	C2442.796387,2425.026367 2444.195068,2428.542969 2447.849121,2431.858154 
	C2448.086670,2429.021973 2448.651367,2426.169434 2448.510010,2423.352295 
	C2447.410400,2401.407471 2445.518311,2379.481201 2445.131836,2357.527100 
	C2444.521729,2322.885742 2443.760742,2288.179688 2445.203613,2253.590332 
	C2446.392578,2225.081787 2447.656006,2196.288330 2455.760498,2168.557129 
	C2458.358154,2159.668457 2461.193848,2150.595947 2465.640625,2142.559326 
	C2472.817627,2129.588379 2484.872559,2127.511963 2495.496582,2137.484619 
	C2502.683594,2144.230713 2508.955078,2152.292969 2514.256104,2160.642578 
	C2528.969971,2183.819092 2538.882324,2209.332031 2548.322266,2234.972656 
	C2569.514893,2292.536865 2585.658203,2351.596436 2600.018311,2411.173096 
	C2601.577393,2417.640625 2603.203857,2424.092529 2604.900635,2430.525146 
	C2605.014893,2430.958496 2605.990723,2431.164551 2607.932373,2432.216309 
	C2608.115967,2414.571045 2607.280029,2397.704834 2606.226807,2380.797363 
	C2603.574707,2338.218750 2602.771484,2295.613281 2606.489502,2253.047119 
	C2608.052490,2235.153564 2609.596680,2217.229492 2612.142334,2199.461670 
	C2613.641846,2188.994385 2616.647461,2178.667236 2619.833252,2168.547119 
	C2621.601807,2162.928955 2624.572266,2157.468994 2627.990723,2152.638428 
	C2634.512451,2143.422607 2643.141602,2141.712646 2652.212158,2148.117676 
	C2657.556396,2151.891357 2662.593506,2156.645752 2666.384033,2161.948975 
	C2672.558594,2170.587158 2678.077393,2179.784424 2683.030518,2189.189453 
	C2698.285889,2218.158936 2709.838867,2248.719727 2719.521240,2279.900635 
	C2730.769775,2316.125732 2740.924561,2352.690674 2751.578125,2389.101074 
	C2752.445312,2392.064453 2753.499756,2394.973145 2754.572021,2398.224121 
	C2756.513428,2396.885498 2758.260986,2396.293457 2758.334473,2395.538574 
	C2759.625977,2382.294678 2760.713135,2369.030518 2763.586426,2353.742676 
	C2774.170410,2349.963623 2779.333740,2344.750000 2780.884033,2335.763916 
	C2781.787354,2330.528564 2782.832031,2325.254150 2784.528076,2320.238770 
	C2785.995605,2315.897949 2788.120605,2311.671143 2790.611572,2307.818115 
	C2792.635742,2304.687500 2796.261963,2304.044434 2799.371582,2306.187256 
	C2802.053711,2308.035645 2804.680420,2310.397461 2806.404053,2313.119873 
	C2811.387939,2320.990723 2816.172607,2329.014404 2820.558350,2337.232666 
	C2843.923096,2381.015625 2857.513916,2428.488037 2871.910889,2475.580811 
	C2887.472656,2526.483154 2900.179199,2578.174561 2910.931152,2630.300781 
	C2918.584473,2667.403809 2925.462158,2704.671631 2932.277344,2741.940674 
	C2937.177490,2768.739990 2941.493408,2795.647461 2945.902588,2822.534180 
	C2949.343750,2843.518555 2952.964844,2864.488037 2955.715576,2885.567383 
	C2959.155762,2911.927734 2961.863525,2938.385254 2964.746826,2964.816406 
	C2968.421631,2998.506592 2972.839111,3032.147461 2975.309814,3065.928711 
	C2977.930420,3101.759766 2978.848633,3137.723145 2980.099609,3173.642822 
	C2980.656250,3189.622559 2980.980957,3205.685059 2979.998047,3221.622803 
	C2978.980225,3238.130859 2985.758057,3249.822266 2998.615723,3258.985107 
	C3011.628174,3268.258545 3024.734863,3277.409180 3037.531982,3286.972656 
	C3080.734863,3319.258057 3123.978516,3351.493652 3166.828613,3384.242676 
	C3176.753174,3391.827881 3185.660400,3393.166748 3196.944336,3386.675781 
	C3237.619873,3417.089600 3277.154785,3446.494629 3316.504639,3476.145264 
	C3480.271729,3599.544434 3643.942383,3723.072266 3807.818359,3846.327148 
	C3817.412842,3853.543213 3828.470703,3858.940186 3842.506104,3852.106445 
	C3865.374512,3848.118164 3872.608643,3832.385498 3875.520264,3813.477051 
	C3885.344482,3749.676758 3895.244141,3685.885742 3904.591553,3622.014648 
	C3913.458252,3561.428711 3921.667725,3500.746582 3930.166016,3440.106689 
z"/>
<path fill="#EB806E" opacity="1.000000" stroke="none" 
	d="
M4442.238281,2096.516113 
	C4441.288574,2101.326416 4437.150879,2102.851318 4432.576660,2104.452148 
	C4367.972656,2127.061768 4310.019043,2161.781738 4255.822754,2202.989014 
	C4228.775391,2223.553955 4204.613770,2247.540283 4182.008789,2272.773193 
	C4164.345703,2292.490234 4149.019043,2314.294189 4132.533691,2335.074951 
	C4123.473145,2346.495361 4114.048340,2357.626465 4104.995605,2369.052979 
	C4094.287598,2382.570068 4083.194336,2395.839600 4073.331787,2409.959473 
	C4038.994385,2459.118652 4010.383057,2511.419678 3986.238281,2566.389648 
	C3962.961182,2619.384521 3943.487793,2673.680176 3925.736328,2728.669434 
	C3921.050781,2743.184326 3917.001221,2757.904297 3912.347656,2772.429932 
	C3910.745850,2777.429443 3908.194336,2782.124756 3903.416504,2787.556152 
	C3877.684326,2780.330811 3854.654053,2772.381104 3831.512207,2764.771484 
	C3825.333740,2762.739746 3818.813477,2761.748291 3812.395996,2758.646729 
	C3813.039062,2754.444824 3814.032227,2751.916016 3814.386719,2749.300781 
	C3817.685547,2724.963135 3821.000732,2700.626221 3824.047363,2676.256348 
	C3825.859375,2661.762939 3827.311768,2647.221191 3828.724121,2632.681885 
	C3831.098389,2608.237549 3834.708008,2583.812500 3835.320801,2559.317383 
	C3836.900879,2496.136719 3838.578613,2432.887451 3831.630371,2369.855713 
	C3830.686279,2361.289307 3829.500488,2352.660156 3827.333740,2344.344971 
	C3825.535645,2337.445312 3820.266113,2333.171631 3812.846680,2332.483643 
	C3807.053467,2331.946533 3801.803955,2334.044678 3799.425781,2339.213867 
	C3797.619385,2343.140137 3796.914307,2348.172119 3797.468018,2352.487793 
	C3800.851074,2378.851562 3804.158936,2405.223389 3804.212891,2431.839355 
	C3804.299316,2474.452393 3804.034180,2517.065674 3803.851074,2559.678711 
	C3803.828369,2564.999512 3803.636475,2570.341309 3803.121582,2575.634277 
	C3800.936279,2598.094482 3798.621582,2620.542236 3796.310791,2642.990234 
	C3794.610107,2659.508301 3793.272705,2676.078613 3791.004395,2692.519531 
	C3787.557617,2717.502930 3784.220947,2742.548828 3779.309082,2767.264160 
	C3776.577637,2781.009766 3780.772949,2789.065918 3793.112793,2795.592285 
	C3784.132324,2856.335938 3769.889648,2914.152832 3749.726074,2970.492676 
	C3727.186768,3033.469727 3696.989258,3092.107910 3652.573486,3142.756104 
	C3650.444580,3145.183350 3649.188965,3148.376953 3646.349854,3151.859619 
	C3643.208252,3154.291016 3641.148682,3155.983643 3639.291748,3157.875244 
	C3589.928223,3208.160156 3531.392822,3243.594238 3464.725586,3265.949219 
	C3407.094482,3285.274414 3347.753906,3295.897705 3287.265625,3300.010986 
	C3273.882080,3300.920654 3263.491211,3304.353760 3254.292969,3314.702881 
	C3237.511963,3333.583496 3218.814453,3350.623291 3197.147461,3365.280029 
	C3191.897949,3362.385254 3187.752441,3360.193604 3184.041016,3357.421387 
	C3151.515625,3333.123535 3119.069336,3308.719971 3086.595947,3284.352295 
	C3065.835449,3268.773926 3045.186035,3253.042969 3024.249023,3237.705566 
	C3015.509277,3231.303467 3011.051514,3223.930908 3011.757812,3212.481445 
	C3012.739990,3196.552490 3011.818359,3180.512695 3012.010254,3164.523926 
	C3012.055176,3160.759277 3013.293213,3157.009277 3014.048828,3152.891602 
	C3020.221924,3152.420166 3025.498291,3152.153320 3030.742920,3151.592529 
	C3048.066650,3149.738770 3064.941162,3146.041992 3080.285645,3137.447998 
	C3098.582275,3127.200195 3108.212891,3111.718018 3108.629883,3090.347656 
	C3108.936279,3074.635254 3102.919434,3061.797607 3092.668457,3050.674316 
	C3072.864990,3029.186279 3048.256592,3014.869141 3021.511963,3003.840576 
	C3014.801514,3001.073730 3008.190674,2998.066406 3001.594971,2995.196045 
	C3000.970947,2990.976807 3000.357910,2987.735352 3000.031006,2984.465576 
	C2998.376709,2967.933594 2997.351318,2951.317139 2995.072754,2934.873535 
	C2990.607178,2902.642578 2985.591064,2870.485352 2980.556152,2838.336182 
	C2974.903320,2802.241211 2969.818115,2766.029297 2962.989502,2730.152832 
	C2950.067139,2662.260498 2936.561035,2594.455078 2919.032959,2527.561523 
	C2904.362549,2471.574219 2888.650391,2415.857178 2867.620361,2361.854736 
	C2858.429932,2338.255371 2847.478760,2315.368164 2831.501709,2295.405029 
	C2826.545166,2289.211426 2821.129639,2283.136230 2814.962158,2278.211670 
	C2801.542725,2267.496582 2775.188965,2268.041992 2765.367188,2288.877197 
	C2762.844238,2294.229248 2759.353760,2299.125244 2756.307617,2304.230713 
	C2738.311523,2279.358643 2729.133789,2250.915039 2724.530273,2221.113281 
	C2716.293213,2167.788574 2726.042969,2117.347900 2754.527832,2071.589111 
	C2791.478271,2012.231201 2844.975830,1977.092041 2914.667725,1967.248169 
	C2973.709229,1958.908325 3027.049561,1973.447388 3075.080566,2007.747437 
	C3110.709961,2033.191284 3135.854736,2067.132324 3151.686279,2107.959229 
	C3153.828125,2113.482666 3156.093750,2118.958008 3158.589111,2125.170654 
	C3162.396240,2124.462891 3165.851318,2124.532227 3168.633057,2123.197998 
	C3221.023193,2098.073486 3267.328857,2065.213867 3302.006348,2017.668213 
	C3327.173584,1983.161987 3344.445557,1945.464233 3349.080811,1902.548584 
	C3349.348145,1900.075073 3351.040039,1897.755371 3353.556885,1894.778320 
	C3367.845459,1897.810913 3381.157715,1900.208130 3393.336914,1905.309937 
	C3416.528564,1915.024414 3440.969238,1916.965454 3465.388428,1919.759033 
	C3497.107422,1923.387817 3528.830078,1926.997559 3560.516113,1930.899902 
	C3594.848389,1935.128418 3629.182617,1939.381104 3663.438232,1944.179199 
	C3700.986816,1949.438477 3738.508545,1954.950562 3775.928467,1961.048950 
	C3819.909180,1968.216675 3863.873535,1975.573486 3907.656494,1983.845825 
	C3988.699951,1999.158325 4069.811768,2014.220703 4150.515625,2031.191406 
	C4241.647949,2050.354980 4332.363770,2071.499268 4423.254883,2091.809570 
	C4429.097656,2093.114990 4434.888184,2094.654297 4442.238281,2096.516113 
M3068.474121,2821.011475 
	C3074.844727,2833.547119 3083.269531,2844.730469 3092.973145,2854.702637 
	C3126.293701,2888.945557 3167.461426,2904.512207 3214.875000,2903.774414 
	C3223.381348,2903.641846 3231.922852,2901.578857 3240.326172,2899.822998 
	C3263.435303,2894.993164 3284.924072,2885.639893 3302.790283,2870.509766 
	C3318.386963,2857.301514 3332.593506,2842.582520 3343.004395,2824.037109 
	C3355.715576,2801.393799 3362.102051,2777.440186 3363.757080,2752.176758 
	C3365.625488,2723.656982 3358.079346,2696.961182 3344.103516,2672.061035 
	C3315.469727,2621.045166 3272.656982,2593.166260 3213.506836,2591.928467 
	C3206.850098,2591.789062 3200.186035,2591.835938 3193.527588,2591.935303 
	C3159.407715,2592.445312 3130.601562,2605.905273 3105.595703,2628.359863 
	C3100.152588,2633.247559 3095.293213,2638.779053 3089.994629,2643.834961 
	C3072.645020,2660.390869 3063.374023,2681.465332 3055.955566,2703.686523 
	C3050.549316,2719.881592 3052.427490,2736.554443 3051.842041,2753.103516 
	C3051.020996,2776.292725 3056.809082,2797.798340 3068.474121,2821.011475 
M2936.090820,2201.614014 
	C2943.066650,2208.768311 2949.630371,2216.396973 2957.149414,2222.925781 
	C2963.109131,2228.100586 2969.943604,2232.483887 2976.930908,2236.200928 
	C2984.389893,2240.168945 2991.284180,2237.806885 2995.969238,2231.033691 
	C3000.745361,2224.128906 3000.145508,2217.791992 2993.471924,2211.447510 
	C2990.126953,2208.267090 2986.005127,2205.918457 2982.338867,2203.059814 
	C2954.556152,2181.396729 2939.522949,2153.178223 2937.758301,2116.994873 
	C2951.687256,2114.138916 2964.781006,2114.644775 2977.603027,2118.690674 
	C2990.920410,2122.892578 3004.002930,2127.833252 3017.260010,2132.234375 
	C3022.248779,2133.890869 3027.393799,2135.822021 3032.547119,2136.086670 
	C3044.130859,2136.681396 3051.406006,2126.536865 3046.732666,2115.985107 
	C3045.049072,2112.184082 3040.823730,2108.709473 3036.919189,2106.826660 
	C3018.276123,2097.836670 2998.729492,2091.323242 2978.453613,2086.973633 
	C2954.618652,2081.860596 2930.708008,2081.369141 2907.369873,2088.374512 
	C2876.728027,2097.572510 2852.634521,2115.288330 2839.409912,2145.636719 
	C2836.671387,2151.921387 2835.069580,2158.228760 2835.984863,2165.024414 
	C2836.730469,2170.559814 2840.757812,2174.613525 2846.341064,2175.822998 
	C2856.388428,2178.000000 2862.854492,2174.620361 2867.236084,2162.270752 
	C2872.429688,2147.633789 2882.331299,2137.372803 2894.518066,2128.851318 
	C2897.502197,2126.764893 2901.479248,2126.098877 2906.478760,2124.225586 
	C2909.061523,2152.861328 2918.229736,2177.466553 2936.090820,2201.614014 
M3383.531494,3126.678223 
	C3361.514160,3111.013916 3344.249756,3091.023926 3329.739258,3068.376465 
	C3313.652588,3043.268311 3304.980713,3015.588379 3299.996582,2986.486084 
	C3299.224609,2981.979980 3298.324219,2977.233154 3296.213867,2973.274658 
	C3292.044922,2965.455566 3283.424805,2963.911133 3275.678223,2968.440430 
	C3267.935059,2972.968506 3267.279297,2980.192383 3268.576904,2987.612549 
	C3272.240967,3008.560791 3276.346680,3029.388428 3284.664795,3049.192139 
	C3300.171631,3086.111084 3323.234619,3117.433838 3353.498047,3143.487061 
	C3365.106934,3153.480957 3377.298828,3162.726074 3391.250732,3169.382080 
	C3396.322021,3171.801514 3401.335205,3172.782227 3406.526855,3170.012207 
	C3417.419678,3164.201172 3418.950684,3151.260254 3409.151855,3143.791992 
	C3401.765137,3138.162109 3393.636719,3133.505615 3383.531494,3126.678223 
z"/>
<path fill="#010101" opacity="1.000000" stroke="none" 
	d="
M6541.979004,6132.250000 
	C6540.328613,6125.765625 6540.599609,6119.125000 6540.602539,6112.484863 
	C6540.663086,5962.793457 6540.694824,5813.102051 6540.454590,5661.532715 
	C6601.446777,5660.277832 6662.715820,5660.911133 6723.984863,5661.523438 
	C6823.215332,5662.515625 6922.445312,5663.483398 7021.675293,5664.504395 
	C7027.507812,5664.564453 7033.336426,5665.007812 7039.140625,5665.271484 
	C7039.918945,5668.171875 7040.848633,5670.018066 7040.848145,5671.864258 
	C7040.827637,5932.960449 7040.741211,6194.057129 7040.583496,6455.153320 
	C7040.582520,6456.284180 7039.513184,6457.413574 7038.582031,6459.258789 
	C7024.974609,6461.623047 7011.310059,6458.340820 6997.776855,6455.931152 
	C6945.908203,6446.695312 6900.406738,6424.727051 6863.637207,6386.376953 
	C6833.041992,6354.467773 6814.943848,6316.522949 6812.800781,6272.145508 
	C6810.541992,6225.372070 6826.506348,6184.447754 6857.293945,6149.585449 
	C6867.360840,6138.186035 6879.602051,6128.710449 6890.807617,6118.310547 
	C6893.555664,6115.761230 6898.213379,6114.742676 6897.921875,6108.904785 
	C6874.206543,6110.310547 6850.501465,6111.574219 6826.817383,6113.156738 
	C6798.913086,6115.020996 6771.037598,6117.333008 6743.129883,6119.145996 
	C6691.961914,6122.470215 6640.776855,6125.534668 6589.604492,6128.785156 
	C6574.319824,6129.755859 6559.051758,6130.984375 6541.979004,6132.250000 
z"/>
<path fill="#233960" opacity="1.000000" stroke="none" 
	d="
M5861.654297,5416.968750 
	C5859.519043,5427.503906 5854.183105,5432.813965 5843.445312,5432.115723 
	C5825.574707,5430.951660 5807.724609,5432.405762 5789.749023,5428.991211 
	C5775.557129,5426.294922 5760.520508,5428.059082 5745.859863,5427.811523 
	C5735.897949,5427.643555 5725.981445,5428.098633 5716.153320,5425.019043 
	C5711.239258,5423.479492 5705.584961,5424.287109 5700.263672,5424.065430 
	C5683.029297,5423.346680 5665.619141,5425.485352 5648.637695,5420.473145 
	C5645.551270,5419.561523 5642.006836,5420.241699 5638.677246,5420.110352 
	C5616.121582,5419.220703 5593.559082,5420.931152 5571.000488,5416.668945 
	C5558.101074,5414.231934 5544.403809,5416.244629 5531.087402,5415.707031 
	C5522.505371,5415.360352 5513.969727,5413.952148 5505.400879,5413.157227 
	C5500.108398,5412.666016 5494.796387,5412.341797 5489.486328,5412.098633 
	C5468.932129,5411.155762 5448.348145,5413.014160 5427.806641,5408.660645 
	C5416.934570,5406.355957 5405.222656,5408.073242 5393.893066,5407.853516 
	C5383.939453,5407.660645 5374.042969,5408.079102 5364.184082,5405.084961 
	C5358.632812,5403.399414 5352.285645,5404.358887 5346.299805,5404.074707 
	C5327.079102,5403.161133 5307.854980,5404.865234 5288.612305,5400.765137 
	C5277.104004,5398.312500 5264.691406,5400.351562 5252.712891,5399.784668 
	C5243.471191,5399.347168 5234.281738,5397.891113 5225.051270,5397.088379 
	C5219.090820,5396.569824 5213.100586,5396.373535 5207.120117,5396.105957 
	C5184.572266,5395.093750 5161.888184,5397.714844 5139.469238,5392.473145 
	C5132.495605,5390.842773 5124.857422,5392.136719 5117.528809,5391.921387 
	C5102.937988,5391.493164 5088.468750,5391.550781 5073.829590,5388.984863 
	C5059.566895,5386.484863 5044.585938,5388.264160 5029.937500,5387.715332 
	C5022.013184,5387.418457 5014.131348,5386.090820 5006.215332,5385.401855 
	C4999.600098,5384.825684 4992.968262,5384.402832 4986.334961,5384.086426 
	C4968.442383,5383.233398 4950.608398,5384.197266 4932.648926,5380.848633 
	C4918.444824,5378.200684 4903.401855,5380.283203 4888.752930,5379.707031 
	C4879.508789,5379.342773 4870.309570,5377.902344 4861.081055,5377.042969 
	C4856.448730,5376.610840 4851.800781,5376.289551 4847.151855,5376.104004 
	C4827.255859,5375.309570 4807.365234,5376.644531 4787.478516,5372.682617 
	C4775.911621,5370.378418 4763.558594,5372.091309 4751.562012,5371.855469 
	C4740.946289,5371.646484 4730.339844,5372.324707 4719.858398,5369.001465 
	C4714.956055,5367.447266 4709.286133,5368.312500 4703.964355,5368.078613 
	C4685.405273,5367.263184 4666.861816,5368.691406 4648.284180,5364.764160 
	C4636.769531,5362.329590 4624.375977,5364.129883 4612.379395,5363.880859 
	C4599.772949,5363.619141 4587.285156,5363.722168 4574.672363,5361.007324 
	C4564.439453,5358.804688 4553.440918,5360.198730 4542.784668,5359.912598 
	C4530.846191,5359.592285 4518.861328,5360.612793 4507.106934,5356.868652 
	C4502.822266,5355.503418 4497.851562,5356.282715 4493.193359,5356.099609 
	C4472.633789,5355.290039 4452.102539,5356.601074 4431.515137,5352.750488 
	C4417.960449,5350.215332 4403.593262,5352.235352 4389.607422,5351.719238 
	C4381.687988,5351.426758 4373.815430,5350.015625 4365.902832,5349.324707 
	C4359.285645,5348.746582 4352.644531,5348.403320 4346.008301,5348.092773 
	C4326.785156,5347.193359 4307.561523,5348.774414 4288.323242,5344.741211 
	C4276.799805,5342.326660 4264.413086,5344.092285 4252.416504,5343.861816 
	C4243.128906,5343.683105 4233.954102,5343.765625 4224.698730,5341.248535 
	C4217.812988,5339.375488 4210.144531,5340.446289 4202.833496,5340.043945 
	C4198.870605,5339.826660 4194.760742,5339.834961 4191.009766,5338.740234 
	C4184.598633,5336.869629 4180.119629,5329.871582 4180.372559,5323.420898 
	C4180.656250,5316.189453 4186.696777,5309.552734 4194.151855,5308.601562 
	C4196.768555,5308.268066 4199.690430,5307.879883 4202.088379,5308.675293 
	C4217.709961,5313.860352 4233.824707,5311.336426 4249.718262,5312.068359 
	C4262.972656,5312.679199 4276.145996,5312.093750 4289.425781,5315.024902 
	C4299.636719,5317.278320 4310.654785,5315.845703 4321.312500,5316.111816 
	C4333.255371,5316.408691 4345.052246,5316.940918 4357.012695,5318.866211 
	C4371.344238,5321.171875 4386.261719,5319.649902 4400.904297,5320.278809 
	C4409.486816,5320.646484 4418.020020,5322.071777 4426.591797,5322.833984 
	C4432.548828,5323.363770 4438.530273,5323.653809 4444.506836,5323.913086 
	C4464.399902,5324.774414 4484.307129,5323.151367 4504.186523,5327.329590 
	C4515.065918,5329.616699 4526.770996,5327.920410 4538.100586,5328.141113 
	C4548.053223,5328.334961 4557.949219,5327.914551 4567.806152,5330.911133 
	C4573.356934,5332.598145 4579.704590,5331.641113 4585.690430,5331.923340 
	C4604.911133,5332.829590 4624.147949,5331.044434 4643.375000,5335.245605 
	C4654.221191,5337.615723 4665.951660,5335.875488 4677.281250,5336.110352 
	C4689.225098,5336.357910 4701.020996,5336.677734 4712.984375,5338.888184 
	C4725.270020,5341.159180 4738.217773,5339.809082 4750.874023,5340.122070 
	C4762.152344,5340.400879 4773.283203,5340.865723 4784.580566,5342.824219 
	C4797.562500,5345.074219 4811.147949,5343.820801 4824.470215,5344.140137 
	C4835.086914,5344.394531 4845.663574,5343.801270 4856.177246,5346.975586 
	C4861.729492,5348.653320 4868.078125,5347.674805 4874.065430,5347.936035 
	C4893.292480,5348.774902 4912.541504,5347.096680 4931.748047,5351.317383 
	C4941.950195,5353.559082 4952.997070,5351.887695 4963.660156,5352.117188 
	C4976.268066,5352.388184 4988.947266,5351.280762 5001.330566,5355.249512 
	C5005.000000,5356.426270 5009.264160,5355.754883 5013.256836,5355.914062 
	C5034.482910,5356.761230 5055.722168,5355.151855 5076.932129,5359.367676 
	C5088.500488,5361.667480 5100.865723,5359.729004 5112.846680,5360.260742 
	C5121.429199,5360.640625 5129.960938,5362.043457 5138.532227,5362.808105 
	C5144.488770,5363.338867 5150.469238,5363.648438 5156.445312,5363.903320 
	C5176.338867,5364.753418 5196.221191,5363.322754 5216.127930,5367.267578 
	C5228.343262,5369.687012 5241.375488,5367.933105 5254.039062,5368.154297 
	C5263.995605,5368.327637 5273.979004,5367.607910 5283.731445,5371.008789 
	C5287.362305,5372.274902 5291.645996,5371.734375 5295.637207,5371.887695 
	C5317.530273,5372.727539 5339.463379,5370.924805 5361.305664,5375.415527 
	C5371.561035,5377.523926 5382.568359,5375.893555 5393.231445,5376.127441 
	C5405.172852,5376.388672 5417.159180,5375.405273 5428.915527,5379.152344 
	C5433.199219,5380.517578 5438.169922,5379.734863 5442.827637,5379.918457 
	C5463.389648,5380.730957 5483.945312,5379.343750 5504.506836,5383.322266 
	C5516.742676,5385.690430 5529.768555,5383.761719 5542.418945,5384.275879 
	C5550.337891,5384.597168 5558.208984,5385.984863 5566.120117,5386.676270 
	C5572.737793,5387.255371 5579.378906,5387.593262 5586.015625,5387.906250 
	C5605.238281,5388.813477 5624.438477,5387.404297 5643.702637,5391.213867 
	C5656.563477,5393.757324 5670.289551,5391.675293 5683.602539,5392.261230 
	C5692.843750,5392.667480 5702.033691,5394.154785 5711.258789,5395.030762 
	C5715.893066,5395.471191 5720.550781,5395.709961 5725.203613,5395.892090 
	C5746.430664,5396.722656 5767.621094,5395.581055 5788.883789,5399.259277 
	C5803.797363,5401.838867 5819.466309,5400.158203 5834.797852,5400.175781 
	C5844.590332,5400.187500 5853.282227,5402.398438 5860.222168,5412.149414 
	C5861.441895,5414.410156 5861.689453,5415.317871 5861.654297,5416.968750 
z"/>
<path fill="#FFFFFF" opacity="1.000000" stroke="none" 
	d="
M4497.986816,4225.580078 
	C4504.466797,4173.283203 4513.059570,4120.791504 4520.423340,4068.127686 
	C4527.788574,4015.455322 4533.761719,3962.589600 4540.641602,3909.847412 
	C4548.725098,3847.876953 4557.120605,3785.947021 4565.425293,3724.005615 
	C4565.687988,3722.043213 4566.442871,3720.146729 4567.389648,3716.581543 
	C4571.786621,3717.216797 4576.176758,3718.982178 4579.674805,3721.838867 
	C4634.831543,3766.886719 4692.023926,3809.106445 4752.444336,3846.875244 
	C4758.611816,3850.730713 4764.732422,3854.661865 4771.473145,3858.937988 
	C4770.911621,3861.645996 4770.884277,3864.345703 4769.816406,3866.538818 
	C4754.682617,3897.622803 4738.805176,3928.359863 4724.312500,3959.737305 
	C4704.796387,4001.991943 4686.953613,4044.981689 4673.299316,4089.565186 
	C4665.106934,4116.313965 4658.061035,4143.296875 4659.601562,4173.450684 
	C4614.598145,4189.471680 4569.536133,4203.751465 4524.451172,4217.959473 
	C4516.201660,4220.558594 4507.859863,4222.866699 4497.986816,4225.580078 
z"/>
<path fill="#A72120" opacity="1.000000" stroke="none" 
	d="
M2756.155762,2305.842773 
	C2759.353760,2299.125244 2762.844238,2294.229248 2765.367188,2288.877197 
	C2775.188965,2268.041992 2801.542725,2267.496582 2814.962158,2278.211670 
	C2821.129639,2283.136230 2826.545166,2289.211426 2831.501709,2295.405029 
	C2847.478760,2315.368164 2858.429932,2338.255371 2867.620361,2361.854736 
	C2888.650391,2415.857178 2904.362549,2471.574219 2919.032959,2527.561523 
	C2936.561035,2594.455078 2950.067139,2662.260498 2962.989502,2730.152832 
	C2969.818115,2766.029297 2974.903320,2802.241211 2980.556152,2838.336182 
	C2985.591064,2870.485352 2990.607178,2902.642578 2995.072754,2934.873535 
	C2997.351318,2951.317139 2998.376709,2967.933594 3000.031006,2984.465576 
	C3000.357910,2987.735352 3000.970947,2990.976807 3001.594971,2995.196045 
	C3008.190674,2998.066406 3014.801514,3001.073730 3021.511963,3003.840576 
	C3048.256592,3014.869141 3072.864990,3029.186279 3092.668457,3050.674316 
	C3102.919434,3061.797607 3108.936279,3074.635254 3108.629883,3090.347656 
	C3108.212891,3111.718018 3098.582275,3127.200195 3080.285645,3137.447998 
	C3064.941162,3146.041992 3048.066650,3149.738770 3030.742920,3151.592529 
	C3025.498291,3152.153320 3020.221924,3152.420166 3014.048828,3152.891602 
	C3013.293213,3157.009277 3012.055176,3160.759277 3012.010254,3164.523926 
	C3011.818359,3180.512695 3012.739990,3196.552490 3011.757812,3212.481445 
	C3011.051514,3223.930908 3015.509277,3231.303467 3024.249023,3237.705566 
	C3045.186035,3253.042969 3065.835449,3268.773926 3086.595947,3284.352295 
	C3119.069336,3308.719971 3151.515625,3333.123535 3184.041016,3357.421387 
	C3187.752441,3360.193604 3191.897949,3362.385254 3196.733887,3366.413574 
	C3196.989990,3373.913818 3196.354248,3379.846924 3195.718506,3385.779785 
	C3185.660400,3393.166748 3176.753174,3391.827881 3166.828613,3384.242676 
	C3123.978516,3351.493652 3080.734863,3319.258057 3037.531982,3286.972656 
	C3024.734863,3277.409180 3011.628174,3268.258545 2998.615723,3258.985107 
	C2985.758057,3249.822266 2978.980225,3238.130859 2979.998047,3221.622803 
	C2980.980957,3205.685059 2980.656250,3189.622559 2980.099609,3173.642822 
	C2978.848633,3137.723145 2977.930420,3101.759766 2975.309814,3065.928711 
	C2972.839111,3032.147461 2968.421631,2998.506592 2964.746826,2964.816406 
	C2961.863525,2938.385254 2959.155762,2911.927734 2955.715576,2885.567383 
	C2952.964844,2864.488037 2949.343750,2843.518555 2945.902588,2822.534180 
	C2941.493408,2795.647461 2937.177490,2768.739990 2932.277344,2741.940674 
	C2925.462158,2704.671631 2918.584473,2667.403809 2910.931152,2630.300781 
	C2900.179199,2578.174561 2887.472656,2526.483154 2871.910889,2475.580811 
	C2857.513916,2428.488037 2843.923096,2381.015625 2820.558350,2337.232666 
	C2816.172607,2329.014404 2811.387939,2320.990723 2806.404053,2313.119873 
	C2804.680420,2310.397461 2802.053711,2308.035645 2799.371582,2306.187256 
	C2796.261963,2304.044434 2792.635742,2304.687500 2790.611572,2307.818115 
	C2788.120605,2311.671143 2785.995605,2315.897949 2784.528076,2320.238770 
	C2782.832031,2325.254150 2781.787354,2330.528564 2780.884033,2335.763916 
	C2779.333740,2344.750000 2774.170410,2349.963623 2764.093750,2351.994141 
	C2751.674072,2345.223633 2749.512451,2334.919922 2752.296387,2322.864746 
	C2753.484863,2317.717285 2754.765137,2312.591064 2756.155762,2305.842773 
M3008.322266,3089.831543 
	C3009.251221,3099.463135 3006.632324,3109.572754 3012.073242,3119.639893 
	C3018.093018,3119.639893 3024.067383,3120.233154 3029.879639,3119.516113 
	C3041.708008,3118.056396 3053.422607,3115.864258 3064.147705,3110.123535 
	C3079.768555,3101.763184 3084.401855,3087.470459 3070.791016,3072.740234 
	C3065.423828,3066.932129 3059.677979,3061.087891 3053.065674,3056.900146 
	C3040.781250,3049.119141 3027.800537,3042.417725 3014.947754,3035.570557 
	C3012.387695,3034.206787 3009.103516,3034.202637 3005.058838,3033.337646 
	C3006.170410,3051.896240 3007.192627,3068.961426 3008.322266,3089.831543 
z"/>
<path fill="#FFFFFF" opacity="1.000000" stroke="none" 
	d="
M3647.526855,3151.213867 
	C3649.188965,3148.376953 3650.444580,3145.183350 3652.573486,3142.756104 
	C3696.989258,3092.107910 3727.186768,3033.469727 3749.726074,2970.492676 
	C3769.889648,2914.152832 3784.132324,2856.335938 3794.590820,2795.212891 
	C3803.139404,2792.089111 3807.500732,2788.334717 3808.630127,2780.950928 
	C3809.689453,2774.027588 3811.160400,2767.167236 3812.449951,2760.279297 
	C3818.813477,2761.748291 3825.333740,2762.739746 3831.512207,2764.771484 
	C3854.654053,2772.381104 3877.684326,2780.330811 3902.246094,2788.465820 
	C3903.283203,2796.005371 3903.983398,2803.532227 3902.193848,2810.411865 
	C3888.641357,2862.518799 3876.525391,2914.956787 3866.202148,2967.780518 
	C3859.326172,3002.963135 3853.548828,3038.366699 3847.676025,3073.737305 
	C3842.457275,3105.170410 3837.546143,3136.659668 3832.969971,3168.192627 
	C3830.681885,3183.960938 3829.515869,3199.890381 3827.714600,3215.732178 
	C3825.689209,3233.541016 3823.334961,3251.314209 3821.462158,3269.138184 
	C3819.379639,3288.957520 3817.675293,3308.816895 3815.815674,3328.659668 
	C3815.257812,3334.610596 3815.410156,3340.725586 3814.044678,3346.482910 
	C3811.128174,3358.780273 3815.333496,3368.531982 3823.144531,3377.568359 
	C3836.067139,3392.517334 3852.780518,3402.296143 3869.946045,3411.092529 
	C3888.874512,3420.791992 3908.444824,3429.239014 3928.950684,3439.169189 
	C3921.667725,3500.746582 3913.458252,3561.428711 3904.591553,3622.014648 
	C3895.244141,3685.885742 3885.344482,3749.676758 3875.520264,3813.477051 
	C3872.608643,3832.385498 3865.374512,3848.118164 3842.536133,3850.493896 
	C3848.645752,3817.875732 3852.889648,3786.209961 3855.177246,3754.422852 
	C3860.743652,3677.072998 3857.026855,3600.234619 3840.399902,3524.195801 
	C3809.433594,3382.582520 3745.259277,3258.248291 3647.526855,3151.213867 
z"/>
<path fill="#F39405" opacity="1.000000" stroke="none" 
	d="
M4594.090820,3552.321289 
	C4588.506348,3550.272461 4584.669434,3548.024414 4580.044922,3544.623535 
	C4579.441895,3540.813477 4579.299316,3538.083496 4579.870605,3535.511719 
	C4582.000977,3525.921631 4586.530273,3521.505371 4595.758301,3520.464844 
	C4609.608887,3518.902832 4623.479492,3517.465088 4637.371582,3516.346436 
	C4656.268066,3514.825195 4674.004883,3509.003906 4690.483398,3500.292725 
	C4712.263672,3488.779297 4725.293945,3469.354736 4731.495605,3446.077637 
	C4736.783691,3426.228516 4740.398926,3405.880615 4743.788574,3385.592285 
	C4748.052734,3360.072021 4751.506348,3334.411377 4754.971680,3308.765381 
	C4756.927246,3294.290527 4758.626953,3279.754883 4759.692383,3265.191650 
	C4761.632324,3238.679199 4762.122559,3212.034912 4764.810059,3185.607666 
	C4770.622559,3128.456787 4767.795410,3071.211914 4767.922852,3014.003662 
	C4768.004395,2977.429199 4764.651855,2941.018555 4760.887695,2904.650879 
	C4758.905273,2885.492432 4757.845215,2866.239258 4755.968262,2847.068359 
	C4754.479980,2831.874512 4752.696289,2816.694824 4750.498047,2801.588135 
	C4743.710938,2754.943848 4735.921875,2708.468750 4725.820801,2662.409668 
	C4724.026367,2654.227783 4726.890625,2648.076660 4733.714355,2643.651367 
	C4741.200195,2638.797119 4750.297852,2640.801758 4754.053711,2648.774902 
	C4756.572754,2654.122559 4758.301758,2660.035156 4759.291016,2665.879883 
	C4766.495117,2708.415771 4773.543457,2750.979492 4780.398438,2793.573242 
	C4786.205078,2829.647949 4789.683594,2865.970459 4792.833008,2902.381348 
	C4794.496582,2921.616699 4794.703613,2940.906494 4796.579590,2960.048096 
	C4802.833984,3023.861572 4799.704590,3087.778564 4799.180176,3151.634277 
	C4798.945801,3180.111328 4795.092773,3208.564209 4792.753418,3237.017334 
	C4791.338379,3254.226807 4790.032227,3271.457031 4788.047852,3288.605225 
	C4784.769043,3316.949707 4780.998047,3345.237549 4777.398438,3373.544678 
	C4775.556152,3388.034180 4774.042969,3402.581055 4771.661133,3416.983154 
	C4767.626465,3441.379639 4760.701172,3464.843018 4748.750977,3486.761719 
	C4735.520508,3511.029297 4714.078613,3525.040039 4689.453613,3534.648193 
	C4671.519043,3541.645752 4652.988281,3547.063965 4633.466797,3548.292725 
	C4620.893555,3549.083984 4608.379883,3550.813232 4594.090820,3552.321289 
z"/>
<path fill="#233960" opacity="1.000000" stroke="none" 
	d="
M3646.350098,3151.859619 
	C3745.259277,3258.248291 3809.433594,3382.582520 3840.399902,3524.195801 
	C3857.026855,3600.234619 3860.743652,3677.072998 3855.177246,3754.422852 
	C3852.889648,3786.209961 3848.645752,3817.875732 3841.108887,3850.583984 
	C3828.470703,3858.940186 3817.412842,3853.543213 3807.818359,3846.327148 
	C3643.942383,3723.072266 3480.271729,3599.544434 3316.504639,3476.145264 
	C3277.154785,3446.494629 3237.619873,3417.089600 3196.944336,3386.675781 
	C3196.354248,3379.846924 3196.989990,3373.913818 3198.039307,3366.847412 
	C3218.814453,3350.623291 3237.511963,3333.583496 3254.292969,3314.702881 
	C3263.491211,3304.353760 3273.882080,3300.920654 3287.265625,3300.010986 
	C3347.753906,3295.897705 3407.094482,3285.274414 3464.725586,3265.949219 
	C3531.392822,3243.594238 3589.928223,3208.160156 3639.291748,3157.875244 
	C3641.148682,3155.983643 3643.208252,3154.291016 3646.350098,3151.859619 
z"/>
<path fill="#ED9F93" opacity="1.000000" stroke="none" 
	d="
M3067.854980,2819.640137 
	C3056.809082,2797.798340 3051.020996,2776.292725 3051.842041,2753.103516 
	C3052.427490,2736.554443 3050.549316,2719.881592 3055.955566,2703.686523 
	C3063.374023,2681.465332 3072.645020,2660.390869 3089.994629,2643.834961 
	C3095.293213,2638.779053 3100.152588,2633.247559 3105.595703,2628.359863 
	C3130.601562,2605.905273 3159.407715,2592.445312 3193.527588,2591.935303 
	C3200.186035,2591.835938 3206.850098,2591.789062 3213.506836,2591.928467 
	C3272.656982,2593.166260 3315.469727,2621.045166 3344.103516,2672.061035 
	C3358.079346,2696.961182 3365.625488,2723.656982 3363.757080,2752.176758 
	C3362.102051,2777.440186 3355.715576,2801.393799 3343.004395,2824.037109 
	C3332.593506,2842.582520 3318.386963,2857.301514 3302.790283,2870.509766 
	C3284.924072,2885.639893 3263.435303,2894.993164 3240.326172,2899.822998 
	C3231.922852,2901.578857 3223.381348,2903.641846 3214.875000,2903.774414 
	C3167.461426,2904.512207 3126.293701,2888.945557 3092.973145,2854.702637 
	C3083.269531,2844.730469 3074.844727,2833.547119 3067.854980,2819.640137 
z"/>
<path fill="#A72120" opacity="1.000000" stroke="none" 
	d="
M3812.395996,2758.646484 
	C3811.160400,2767.167236 3809.689453,2774.027588 3808.630127,2780.950928 
	C3807.500732,2788.334717 3803.139404,2792.089111 3794.587402,2793.605469 
	C3780.772949,2789.065918 3776.577637,2781.009766 3779.309082,2767.264160 
	C3784.220947,2742.548828 3787.557617,2717.502930 3791.004395,2692.519531 
	C3793.272705,2676.078613 3794.610107,2659.508301 3796.310791,2642.990234 
	C3798.621582,2620.542236 3800.936279,2598.094482 3803.121582,2575.634277 
	C3803.636475,2570.341309 3803.828369,2564.999512 3803.851074,2559.678711 
	C3804.034180,2517.065674 3804.299316,2474.452393 3804.212891,2431.839355 
	C3804.158936,2405.223389 3800.851074,2378.851562 3797.468018,2352.487793 
	C3796.914307,2348.172119 3797.619385,2343.140137 3799.425781,2339.213867 
	C3801.803955,2334.044678 3807.053467,2331.946533 3812.846680,2332.483643 
	C3820.266113,2333.171631 3825.535645,2337.445312 3827.333740,2344.344971 
	C3829.500488,2352.660156 3830.686279,2361.289307 3831.630371,2369.855713 
	C3838.578613,2432.887451 3836.900879,2496.136719 3835.320801,2559.317383 
	C3834.708008,2583.812500 3831.098389,2608.237549 3828.724121,2632.681885 
	C3827.311768,2647.221191 3825.859375,2661.762939 3824.047363,2676.256348 
	C3821.000732,2700.626221 3817.685547,2724.963135 3814.386719,2749.300781 
	C3814.032227,2751.916016 3813.039062,2754.444824 3812.395996,2758.646484 
z"/>
<path fill="#A72120" opacity="1.000000" stroke="none" 
	d="
M2935.199707,2200.483398 
	C2918.229736,2177.466553 2909.061523,2152.861328 2906.478760,2124.225586 
	C2901.479248,2126.098877 2897.502197,2126.764893 2894.518066,2128.851318 
	C2882.331299,2137.372803 2872.429688,2147.633789 2867.236084,2162.270752 
	C2862.854492,2174.620361 2856.388428,2178.000000 2846.341064,2175.822998 
	C2840.757812,2174.613525 2836.730469,2170.559814 2835.984863,2165.024414 
	C2835.069580,2158.228760 2836.671387,2151.921387 2839.409912,2145.636719 
	C2852.634521,2115.288330 2876.728027,2097.572510 2907.369873,2088.374512 
	C2930.708008,2081.369141 2954.618652,2081.860596 2978.453613,2086.973633 
	C2998.729492,2091.323242 3018.276123,2097.836670 3036.919189,2106.826660 
	C3040.823730,2108.709473 3045.049072,2112.184082 3046.732666,2115.985107 
	C3051.406006,2126.536865 3044.130859,2136.681396 3032.547119,2136.086670 
	C3027.393799,2135.822021 3022.248779,2133.890869 3017.260010,2132.234375 
	C3004.002930,2127.833252 2990.920410,2122.892578 2977.603027,2118.690674 
	C2964.781006,2114.644775 2951.687256,2114.138916 2937.758301,2116.994873 
	C2939.522949,2153.178223 2954.556152,2181.396729 2982.338867,2203.059814 
	C2986.005127,2205.918457 2990.126953,2208.267090 2993.471924,2211.447510 
	C3000.145508,2217.791992 3000.745361,2224.128906 2995.969238,2231.033691 
	C2991.284180,2237.806885 2984.389893,2240.168945 2976.930908,2236.200928 
	C2969.943604,2232.483887 2963.109131,2228.100586 2957.149414,2222.925781 
	C2949.630371,2216.396973 2943.066650,2208.768311 2935.199707,2200.483398 
z"/>
<path fill="#A72120" opacity="1.000000" stroke="none" 
	d="
M3384.685059,3127.547119 
	C3393.636719,3133.505615 3401.765137,3138.162109 3409.151855,3143.791992 
	C3418.950684,3151.260254 3417.419678,3164.201172 3406.526855,3170.012207 
	C3401.335205,3172.782227 3396.322021,3171.801514 3391.250732,3169.382080 
	C3377.298828,3162.726074 3365.106934,3153.480957 3353.498047,3143.487061 
	C3323.234619,3117.433838 3300.171631,3086.111084 3284.664795,3049.192139 
	C3276.346680,3029.388428 3272.240967,3008.560791 3268.576904,2987.612549 
	C3267.279297,2980.192383 3267.935059,2972.968506 3275.678223,2968.440430 
	C3283.424805,2963.911133 3292.044922,2965.455566 3296.213867,2973.274658 
	C3298.324219,2977.233154 3299.224609,2981.979980 3299.996582,2986.486084 
	C3304.980713,3015.588379 3313.652588,3043.268311 3329.739258,3068.376465 
	C3344.249756,3091.023926 3361.514160,3111.013916 3384.685059,3127.547119 
z"/>
<path fill="#EB806E" opacity="1.000000" stroke="none" 
	d="
M3008.268555,3087.929199 
	C3007.192627,3068.961426 3006.170410,3051.896240 3005.058838,3033.337646 
	C3009.103516,3034.202637 3012.387695,3034.206787 3014.947754,3035.570557 
	C3027.800537,3042.417725 3040.781250,3049.119141 3053.065674,3056.900146 
	C3059.677979,3061.087891 3065.423828,3066.932129 3070.791016,3072.740234 
	C3084.401855,3087.470459 3079.768555,3101.763184 3064.147705,3110.123535 
	C3053.422607,3115.864258 3041.708008,3118.056396 3029.879639,3119.516113 
	C3024.067383,3120.233154 3018.093018,3119.639893 3012.073242,3119.639893 
	C3006.632324,3109.572754 3009.251221,3099.463135 3008.268555,3087.929199 
z"/>
</svg>